<svg width="32" height="32" viewBox="0 0 32 32" fill="none" xmlns="http://www.w3.org/2000/svg">
  <rect width="32" height="32" rx="6" fill="#6e165b"/>
  <path d="M16 6C14.3956 6 12.8077 6.31039 11.3312 6.91345C9.85479 7.51652 8.52299 8.40066 7.41117 9.51249C6.29935 10.6243 5.4152 11.9561 4.81214 13.4325C4.20907 14.909 3.89868 16.4969 3.89868 18.1013C3.89868 19.7056 4.20907 21.2935 4.81214 22.77C5.4152 24.2464 6.29935 25.5782 7.41117 26.69C8.52299 27.8018 9.85479 28.686 11.3312 29.2891C12.8077 29.8921 14.3956 30.2025 16 30.2025C17.6044 30.2025 19.1923 29.8921 20.6687 29.2891C22.1452 28.686 23.477 27.8018 24.5888 26.69C25.7006 25.5782 26.5848 24.2464 27.1878 22.77C27.7909 21.2935 28.1013 19.7056 28.1013 18.1013C28.1013 16.4969 27.7909 14.909 27.1878 13.4325C26.5848 11.9561 25.7006 10.6243 24.5888 9.51249C23.477 8.40066 22.1452 7.51652 20.6687 6.91345C19.1923 6.31039 17.6044 6 16 6ZM16 7.82278C17.7863 7.82278 19.4725 8.39496 20.8228 9.45443C22.1731 10.5139 23.1019 12.0066 23.461 13.6865C23.8202 15.3664 23.5881 17.1167 22.805 18.6518C22.0219 20.1869 20.7347 21.4151 19.1675 22.1253C17.6003 22.8354 15.8457 22.9865 14.1869 22.5538C12.528 22.1211 11.0692 21.1252 10.054 19.731C9.03884 18.3369 8.52952 16.6287 8.60291 14.8823C8.67631 13.136 9.32842 11.4837 10.4553 10.1925L11.0126 10.6493C10.0007 11.8181 9.40442 13.3013 9.34035 14.8495C9.27628 16.3977 9.74877 17.9244 10.6751 19.173C11.6014 20.4216 12.9303 21.3203 14.446 21.7138C15.9618 22.1073 17.5664 21.9717 18.9946 21.3284C20.4228 20.6851 21.591 19.5702 22.3101 18.1675C23.0292 16.7648 23.2551 15.1547 22.9497 13.6049C22.6443 12.0551 21.8274 10.6634 20.6358 9.67432C19.4442 8.6852 17.9471 8.15456 16.4 8.1772L16 8.18228V7.82278Z" fill="#cba79f"/>
</svg>